<svg xmlns="http://www.w3.org/2000/svg" width="64" height="64" viewBox="0 0 64 64" shape-rendering="crispEdges" fill="#00E8FF">
  <g>
    <rect x="44" y="7" width="3" height="1" />
    <rect x="44" y="8" width="4" height="2" />
    <rect x="42" y="10" width="8" height="1" />
    <rect x="41" y="11" width="9" height="1" />
    <rect x="40" y="12" width="12" height="2" />
    <rect x="37" y="14" width="16" height="1" />
    <rect x="36" y="15" width="17" height="2" />
    <rect x="33" y="17" width="20" height="2" />
    <rect x="32" y="19" width="21" height="1" />
    <rect x="27" y="20" width="2" height="1" />
    <rect x="32" y="20" width="10" height="1" />
    <rect x="44" y="20" width="9" height="1" />
    <rect x="26" y="21" width="3" height="1" />
    <rect x="32" y="21" width="9" height="2" />
    <rect x="42" y="21" width="11" height="2" />
    <rect x="24" y="22" width="5" height="1" />
    <rect x="24" y="23" width="6" height="1" />
    <rect x="32" y="23" width="8" height="1" />
    <rect x="41" y="23" width="11" height="1" />
    <rect x="22" y="24" width="8" height="2" />
    <rect x="33" y="24" width="6" height="1" />
    <rect x="40" y="24" width="12" height="2" />
    <rect x="33" y="25" width="5" height="1" />
    <rect x="20" y="26" width="12" height="3" />
    <rect x="33" y="26" width="4" height="1" />
    <rect x="38" y="26" width="12" height="1" />
    <rect x="34" y="27" width="2" height="1" />
    <rect x="37" y="27" width="10" height="1" />
    <rect x="37" y="28" width="3" height="1" />
    <rect x="20" y="29" width="13" height="2" />
    <rect x="36" y="29" width="3" height="1" />
    <rect x="48" y="29" width="3" height="1" />
    <rect x="16" y="30" width="2" height="2" />
    <rect x="35" y="30" width="3" height="1" />
    <rect x="41" y="30" width="10" height="1" />
    <rect x="20" y="31" width="12" height="1" />
    <rect x="34" y="31" width="3" height="1" />
    <rect x="38" y="31" width="13" height="1" />
    <rect x="15" y="32" width="5" height="1" />
    <rect x="21" y="32" width="11" height="1" />
    <rect x="33" y="32" width="3" height="1" />
    <rect x="37" y="32" width="11" height="2" />
    <rect x="14" y="33" width="6" height="2" />
    <rect x="22" y="33" width="8" height="1" />
    <rect x="32" y="33" width="4" height="1" />
    <rect x="22" y="34" width="7" height="1" />
    <rect x="31" y="34" width="16" height="1" />
    <rect x="15" y="35" width="6" height="2" />
    <rect x="23" y="35" width="6" height="1" />
    <rect x="30" y="35" width="13" height="1" />
    <rect x="23" y="36" width="5" height="1" />
    <rect x="29" y="36" width="4" height="1" />
    <rect x="44" y="36" width="2" height="1" />
    <rect x="13" y="37" width="8" height="1" />
    <rect x="23" y="37" width="3" height="1" />
    <rect x="29" y="37" width="3" height="1" />
    <rect x="39" y="37" width="7" height="1" />
    <rect x="13" y="38" width="9" height="2" />
    <rect x="24" y="38" width="2" height="1" />
    <rect x="28" y="38" width="3" height="1" />
    <rect x="32" y="38" width="13" height="2" />
    <rect x="27" y="39" width="3" height="1" />
    <rect x="14" y="40" width="10" height="3" />
    <rect x="26" y="40" width="3" height="1" />
    <rect x="30" y="40" width="14" height="1" />
    <rect x="25" y="41" width="17" height="1" />
    <rect x="25" y="42" width="16" height="1" />
    <rect x="16" y="43" width="6" height="2" />
    <rect x="24" y="43" width="13" height="1" />
    <rect x="24" y="44" width="3" height="1" />
    <rect x="38" y="44" width="2" height="1" />
    <rect x="17" y="45" width="4" height="2" />
    <rect x="22" y="45" width="4" height="2" />
    <rect x="37" y="45" width="3" height="1" />
    <rect x="28" y="46" width="11" height="1" />
    <rect x="18" y="47" width="2" height="2" />
    <rect x="21" y="47" width="3" height="1" />
    <rect x="26" y="47" width="12" height="1" />
    <rect x="21" y="48" width="16" height="1" />
    <rect x="20" y="49" width="14" height="1" />
    <rect x="20" y="50" width="10" height="1" />
    <rect x="20" y="51" width="3" height="1" />
    <rect x="19" y="52" width="3" height="2" />
    <rect x="18" y="54" width="3" height="3" />
    <rect x="18" y="57" width="2" height="2" />
    <rect x="14" y="32" width="1" height="1" />
    <rect x="13" y="35" width="2" height="2" />
  </g>
</svg>
